<svg width="56" height="53" viewBox="0 0 56 53" fill="none" xmlns="http://www.w3.org/2000/svg">
<path d="M26.0977 3.08984C26.6965 1.24752 29.3035 1.24751 29.9023 3.08984L34.2334 16.4209C34.769 18.0688 36.3053 19.1846 38.0381 19.1846H52.0537C53.9911 19.1846 54.7969 21.6639 53.2295 22.8027L41.8896 31.041C40.488 32.0595 39.9014 33.8649 40.4365 35.5127L44.7686 48.8438C45.3669 50.6862 43.2578 52.2178 41.6904 51.0791L30.3516 42.8408C28.9496 41.8222 27.0504 41.8222 25.6484 42.8408L14.3096 51.0791C12.7422 52.2178 10.6331 50.6862 11.2314 48.8438L15.5635 35.5127C16.0986 33.8649 15.5119 32.0595 14.1104 31.041L2.77051 22.8027C1.20309 21.6639 2.00883 19.1846 3.94629 19.1846H17.9619C19.6947 19.1846 21.231 18.0688 21.7666 16.4209L26.0977 3.08984Z" fill="#D3C875" stroke="black" stroke-width="2"/>
</svg>
