<svg width="52" height="326" viewBox="0 0 52 326" fill="none" xmlns="http://www.w3.org/2000/svg">
<path d="M-2.72631 6.58147C-6.67632 3.71367 -12.3742 1.09944 -14 0V325.828C-12.3497 326.702 -10.5167 323.996 -9.91557 323.279C-8.90669 322.074 -5.83485 320.967 -2.56292 319.417C0.709008 317.424 4.59807 316.079 7.78389 312.347C10.2348 309.476 11.7421 306.861 11.9953 302.062C12.4079 294.243 12.9271 290.734 16.2272 288.286C19.4991 285.858 23.2431 284.545 26.4474 281.878C31.7535 277.46 33.5619 273.819 35.148 271.065C37.1945 267.512 42.3044 260.26 46.4588 251.06C49.9881 243.245 50.7198 236.587 49.7062 231.211C48.8933 226.899 49.1488 223.146 47.1165 219.624C45.07 216.077 44.2908 209.029 44.6737 200.453C45.6418 178.776 48.8934 176.152 50.2618 172.931C51.622 169.729 52.6732 153.298 51.479 143.349C51.0665 139.911 48.9442 136.079 48.0723 133.08C46.9817 129.328 44.3756 126.673 41.8021 121.926C39.3512 117.406 37.2579 114.936 35.9527 112.111C34.7272 109.458 32.0388 106.861 31.872 96.2816C31.7372 87.7345 31.7372 71.7794 31.5983 63.3515C31.4603 54.975 31.2014 54.0588 30.9213 53.0675L30.9161 53.0492C29.8255 49.1879 29.777 45.476 28.1916 41.5647C25.7243 35.4781 22.3544 29.3744 17.5629 22.5796C14.8424 18.7216 11.1477 15.9915 7.48978 12.7641C4.48337 10.1116 0.292974 8.77355 -2.72631 6.58147Z" fill="#28533A"/>
</svg>
