<svg width="51" height="189" viewBox="0 0 51 189" fill="none" xmlns="http://www.w3.org/2000/svg">
<path d="M56.5 186C58.0472 190.49 62.3854 187.638 63 188V0.0136606C60.375 0.0136606 57.2207 -0.036824 55.7893 0.0563106C54.0521 0.330236 49.5463 0.511027 43.1691 0.604161C40.3588 0.878086 38.7867 0.77096 37.0605 1.15201C35.0006 1.60673 33.1396 1.76127 31.3472 2.24771C28.2991 3.07497 21.1136 6.0691 16.8864 10.1039C15.4457 11.479 13.8826 12.6276 9.97947 17.8806C6.59473 22.436 4.61631 25.2425 3.14514 29.0102C1.85733 32.3083 -0.406363 38.8972 0.063048 48.9301C0.319374 54.4086 0.0792261 58.5394 0.733202 63.0783C1.45586 68.0939 3.4559 78.1949 4.33721 85.8141C5.05678 92.0349 5.14312 96.835 5.62193 100.962C5.98326 104.077 5.76759 108.315 6.91282 113.483C8.14504 119.044 8.56465 122.133 9.32939 124.427C10.523 128.007 12.0939 132.951 14.3293 135.751C16.5884 138.58 19.4097 142.238 21.4817 144.971C23.6976 147.894 25.3167 149.806 28.0211 151.633C30.5967 153.372 30.4497 155.574 34.5 158C38.9178 160.646 42.3027 164.286 44 166C45.5519 167.567 52.5 168.5 53 175C53.2082 177.706 55.6259 183.464 56.5 186Z" fill="#28533A"/>
</svg>
