<svg width="62" height="62" viewBox="0 0 62 62" fill="none" xmlns="http://www.w3.org/2000/svg">
<rect x="1.5" y="1.5" width="59" height="59" rx="29.5" fill="black" stroke="black" stroke-width="3"/>
<path d="M18 27.72C21.8403 36.0812 28.6628 42.7082 37.132 46.304L38.492 46.91C39.998 47.5807 41.6925 47.6982 43.2767 47.242C44.8609 46.7857 46.2333 45.785 47.152 44.416L48.93 41.768C49.2082 41.3527 49.3208 40.8483 49.2457 40.3541C49.1706 39.86 48.9131 39.4118 48.524 39.098L42.5 34.238C42.2902 34.0689 42.0484 33.9439 41.7891 33.8705C41.5298 33.7972 41.2583 33.777 40.991 33.8112C40.7237 33.8454 40.466 33.9332 40.2335 34.0695C40.001 34.2057 39.7985 34.3875 39.638 34.604L37.774 37.118C32.9892 34.7549 29.1162 30.8812 26.754 26.096L29.266 24.232C29.4825 24.0715 29.6643 23.869 29.8005 23.6365C29.9368 23.404 30.0246 23.1463 30.0588 22.879C30.093 22.6117 30.0728 22.3402 29.9995 22.0809C29.9261 21.8216 29.8011 21.5798 29.632 21.37L24.772 15.346C24.4582 14.9569 24.01 14.6994 23.5159 14.6243C23.0217 14.5492 22.5173 14.6618 22.102 14.94L19.436 16.728C18.0588 17.6516 17.0542 19.034 16.6011 20.6291C16.148 22.2243 16.2759 23.9284 16.962 25.438L18 27.72Z" fill="#E3EAC3"/>
</svg>
