<svg width="56" height="270" viewBox="0 0 56 270" fill="none" xmlns="http://www.w3.org/2000/svg">
<path d="M10.9579 8.79397C7.58731 5.78906 1.80677 1.80677 0 0V270C1.85589 269.454 3.98469 269.632 5.16373 269.539C8.16591 268.9 11.0698 268.174 13.8919 266.804C15.0709 265.805 15.7316 264.193 16.8013 262.615C18.7118 259.796 21.7458 255.96 24.4432 252.792C26.5393 250.33 28.5564 247.551 30.2647 244.512C31.0807 243.06 34.6641 234.728 37.822 222.825C39.4541 216.673 41.4074 212.362 42.8166 209.034C43.8209 206.662 46.4393 203.144 46.5447 196.226C46.7248 184.403 47.0892 176.117 47.1806 174.643C47.2707 173.191 47.2567 170.833 48.4607 168.36C50.1855 164.817 52.4835 162.623 54.465 153.526C55.4585 148.966 54.926 140.588 54.274 133.608C53.8209 128.758 53.8424 123.304 53.1823 117.953C52.5436 112.776 51.5626 110.198 49.2603 103.933C47.6255 99.4844 44.3511 93.2582 41.7958 85.8163C39.8035 80.0139 37.7114 76.373 37.167 73.2808C35.9825 66.5532 35.2709 60.3695 35.7178 54.8174C36.179 49.086 37.407 45.4902 37.3553 41.8971C37.2598 35.2541 37.096 30.1348 34.1621 27.5385C31.7904 25.4397 29.3906 22.2926 26.4274 20.3524C21.3755 17.0445 14.7318 12.1583 10.9579 8.79397Z" fill="#28533A"/>
</svg>
